<svg width="700" height="1050" xmlns="http://www.w3.org/2000/svg" xmlns:xlink="http://www.w3.org/1999/xlink">
  <defs>
    <style>
      @import url('https://fonts.googleapis.com/css2?family=Roboto:wght@400;700&amp;family=Oswald:wght@700&amp;display=swap');
      /* Typography Styles */
      .title-main { font-family: 'Oswald', sans-serif; font-size: 72px; fill: #FFFFFF; text-anchor: middle; text-transform: uppercase; letter-spacing: 2px; }
      .title-sub { font-family: 'Oswald', sans-serif; font-size: 40px; fill: #39FF14; text-anchor: middle; text-transform: uppercase; }
      .date-time { font-family: 'Roboto', sans-serif; font-size: 28px; fill: #121212; text-anchor: middle; font-weight: bold; }
      .subheader { font-family: 'Oswald', sans-serif; font-size: 32px; fill: #FFFFFF; text-anchor: middle; text-transform: uppercase; }
      .donation-header { font-family: 'Oswald', sans-serif; font-size: 30px; fill: #39FF14; }
      .donation-text { font-family: 'Roboto', sans-serif; font-size: 18px; fill: #FFFFFF; }

      /* Streamer Specific Styles */
      .streamer-lead { font-family: 'Oswald', sans-serif; font-size: 50px; text-anchor: middle; text-transform: uppercase; fill: #9400D3; letter-spacing: 1.5px;}
      .streamer-support { font-family: 'Roboto', sans-serif; font-size: 26px; fill: #FFFFFF; text-anchor: middle; font-weight: bold; }

      /* Color definitions */
      .accent { fill: #39FF14; } /* Neon Green */
      .accent-purple { fill: #9400D3; } /* Deep Purple */
    </style>
    <linearGradient id="backgroundGradient" x1="0%" y1="0%" x2="0%" y2="100%">
      <stop offset="0%" style="stop-color:#003300;stop-opacity:1" />
      <stop offset="100%" style="stop-color:#000000;stop-opacity:1" />
    </linearGradient>
  </defs>

  <rect width="100%" height="100%" fill="#121212"/>
  <rect width="100%" height="100%" fill="url(#backgroundGradient)" opacity="0.7"/>

  <rect width="100%" height="60" fill="#000000" opacity="0.5"/>
  <text x="350" y="45" font-family="Oswald" font-size="30" fill="#FFFFFF" text-anchor="middle">COLLABORATION STREAM</text>

  <text x="350" y="150" class="title-main">GOOD DAY GOLF</text>
  <text x="350" y="200" class="title-sub">SPECIAL EDUCATION CHARITY TOURNAMENT</text>

  <rect y="240" width="100%" height="60" class="accent"/>
  <text x="350" y="280" class="date-time">OCTOBER 4, 2025 | 9:30 AM CST</text>

  <text x="350" y="360" class="subheader">FEATURING</text>

  <text x="350" y="425" class="streamer-lead">@DUBBB_C</text>

  <g id="StreamersSupport" transform="translate(0, 450)">
    <text x="200" y="30" class="streamer-support">@aleklogan</text>
    <text x="200" y="75" class="streamer-support">@adiehd_</text>

    <text x="500" y="30" class="streamer-support">@xMac_Daddyx</text>
    <text x="500" y="75" class="streamer-support">@slowholman95</text>
  </g>

  <rect y="580" width="100%" height="470" fill="#1E1E1E" opacity="0.9"/>

  <text x="30" y="630" class="donation-header">DONATION INCENTIVES</text>
  <line x1="30" y1="640" x2="320" y2="640" stroke="#39FF14" stroke-width="2"/>

  <text x="30" y="670" class="donation-text">
    <tspan x="30" dy="1.2em" font-weight="bold" class="accent">$1 Donation -</tspan><tspan fill="white"> Add Song to Queue</tspan>
    <tspan x="30" dy="1.8em" font-weight="bold" class="accent">$2 Donations -</tspan><tspan fill="white"> Play Song Next</tspan>
    <tspan x="30" dy="1.8em" font-weight="bold" class="accent">$5 Donations -</tspan><tspan fill="white"> Choose Someone to drink</tspan>
    <tspan x="30" dy="1.8em" font-weight="bold" class="accent">$20 Donations -</tspan><tspan fill="white"> Group Drinks</tspan>
  </text>

  <text x="370" y="630" class="donation-header">DONATION POOL</text>
    <line x1="370" y1="640" x2="670" y2="640" stroke="#39FF14" stroke-width="2"/>

    <text x="370" y="670" class="donation-text">
        <tspan x="370" dy="1.2em" font-weight="bold" class="accent-purple">$25 -</tspan><tspan fill="white"> One Club Challenge</tspan>
        <tspan x="370" dy="1.5em" font-weight="bold" class="accent-purple">$50 -</tspan><tspan fill="white"> Shot Roulette</tspan>
        <tspan x="370" dy="1.5em" font-weight="bold" class="accent-purple">$75 -</tspan><tspan fill="white"> Flamingo and Putt</tspan>
        <tspan x="430" dy="1.2em" fill="white"> between the Legs</tspan>
        <tspan x="370" dy="1.5em" font-weight="bold" class="accent-purple">$100 -</tspan><tspan fill="white"> Dubbb_C Gives</tspan>
        <tspan x="445" dy="1.2em" fill="white"> AlekLogan a Mullet</tspan>
    </text>

  <g transform="translate(275, 860)">
      <g id="QRCode" transform="translate(0, 150) scale(1, -1)">
        <rect x="0" y="0" width="150" height="150" fill="white"/>
        <rect x="4.033" y="4.033" width="28.233" height="4.033" fill="black"/><rect x="44.366" y="4.033" width="4.033" height="4.033" fill="black"/><rect x="52.433" y="4.033" width="4.033" height="4.033" fill="black"/><rect x="60.499" y="4.033" width="4.033" height="4.033" fill="black"/><rect x="80.666" y="4.033" width="8.067" height="4.033" fill="black"/><rect x="92.765" y="4.033" width="8.067" height="4.033" fill="black"/><rect x="104.865" y="4.033" width="4.033" height="4.033" fill="black"/><rect x="112.932" y="4.033" width="28.233" height="4.033" fill="black"/><rect x="4.033" y="8.067" width="4.033" height="4.033" fill="black"/><rect x="28.233" y="8.067" width="4.033" height="4.033" fill="black"/><rect x="36.300" y="8.067" width="4.033" height="4.033" fill="black"/><rect x="44.366" y="8.067" width="4.033" height="4.033" fill="black"/><rect x="52.433" y="8.067" width="4.033" height="4.033" fill="black"/><rect x="60.499" y="8.067" width="8.067" height="4.033" fill="black"/><rect x="84.699" y="8.067" width="4.033" height="4.033" fill="black"/><rect x="112.932" y="8.067" width="4.033" height="4.033" fill="black"/><rect x="137.132" y="8.067" width="4.033" height="4.033" fill="black"/><rect x="4.033" y="12.100" width="4.033" height="4.033" fill="black"/><rect x="12.100" y="12.100" width="12.100" height="4.033" fill="black"/><rect x="28.233" y="12.100" width="4.033" height="4.033" fill="black"/><rect x="36.300" y="12.100" width="4.033" height="4.033" fill="black"/><rect x="44.366" y="12.100" width="4.033" height="4.033" fill="black"/><rect x="56.466" y="12.100" width="4.033" height="4.033" fill="black"/><rect x="64.533" y="12.100" width="4.033" height="4.033" fill="black"/><rect x="72.599" y="12.100" width="4.033" height="4.033" fill="black"/><rect x="84.699" y="12.100" width="16.133" height="4.033" fill="black"/><rect x="104.865" y="12.100" width="4.033" height="4.033" fill="black"/><rect x="112.932" y="12.100" width="4.033" height="4.033" fill="black"/><rect x="120.998" y="12.100" width="12.100" height="4.033" fill="black"/><rect x="137.132" y="12.100" width="4.033" height="4.033" fill="black"/><rect x="4.033" y="16.133" width="4.033" height="4.033" fill="black"/><rect x="12.100" y="16.133" width="12.100" height="4.033" fill="black"/><rect x="28.233" y="16.133" width="4.033" height="4.033" fill="black"/><rect x="36.300" y="16.133" width="4.033" height="4.033" fill="black"/><rect x="44.366" y="16.133" width="4.033" height="4.033" fill="black"/><rect x="56.466" y="16.133" width="8.067" height="4.033" fill="black"/><rect x="80.666" y="16.133" width="8.067" height="4.033" fill="black"/><rect x="92.765" y="16.133" width="12.100" height="4.033" fill="black"/><rect x="112.932" y="16.133" width="4.033" height="4.033" fill="black"/><rect x="120.998" y="16.133" width="12.100" height="4.033" fill="black"/><rect x="137.132" y="16.133" width="4.033" height="4.033" fill="black"/><rect x="4.033" y="20.166" width="4.033" height="4.033" fill="black"/><rect x="12.100" y="20.166" width="12.100" height="4.033" fill="black"/><rect x="28.233" y="20.166" width="4.033" height="4.033" fill="black"/><rect x="36.300" y="20.166" width="8.067" height="4.033" fill="black"/><rect x="72.599" y="20.166" width="8.067" height="4.033" fill="black"/><rect x="92.765" y="20.166" width="4.033" height="4.033" fill="black"/><rect x="100.832" y="20.166" width="4.033" height="4.033" fill="black"/><rect x="112.932" y="20.166" width="4.033" height="4.033" fill="black"/><rect x="120.998" y="20.166" width="12.100" height="4.033" fill="black"/><rect x="137.132" y="20.166" width="4.033" height="4.033" fill="black"/><rect x="4.033" y="24.200" width="4.033" height="4.033" fill="black"/><rect x="28.233" y="24.200" width="4.033" height="4.033" fill="black"/><rect x="36.300" y="24.200" width="28.233" height="4.033" fill="black"/><rect x="80.666" y="24.200" width="4.033" height="4.033" fill="black"/><rect x="88.732" y="24.200" width="4.033" height="4.033" fill="black"/><rect x="100.832" y="24.200" width="4.033" height="4.033" fill="black"/><rect x="112.932" y="24.200" width="4.033" height="4.033" fill="black"/><rect x="137.132" y="24.200" width="4.033" height="4.033" fill="black"/><rect x="4.033" y="28.233" width="28.233" height="4.033" fill="black"/><rect x="36.300" y="28.233" width="4.033" height="4.033" fill="black"/><rect x="44.366" y="28.233" width="4.033" height="4.033" fill="black"/><rect x="52.433" y="28.233" width="4.033" height="4.033" fill="black"/><rect x="60.499" y="28.233" width="4.033" height="4.033" fill="black"/><rect x="68.566" y="28.233" width="4.033" height="4.033" fill="black"/><rect x="76.632" y="28.233" width="4.033" height="4.033" fill="black"/><rect x="84.699" y="28.233" width="4.033" height="4.033" fill="black"/><rect x="92.765" y="28.233" width="4.033" height="4.033" fill="black"/><rect x="100.832" y="28.233" width="4.033" height="4.033" fill="black"/><rect x="104.865" y="28.233" width="4.033" height="4.033" fill="black"/><rect x="112.932" y="28.233" width="28.233" height="4.033" fill="black"/><rect x="48.399" y="32.266" width="4.033" height="4.033" fill="black"/><rect x="64.533" y="32.266" width="4.033" height="4.033" fill="black"/><rect x="72.599" y="32.266" width="12.100" height="4.033" fill="black"/><rect x="96.799" y="32.266" width="12.100" height="4.033" fill="black"/><rect x="16.133" y="36.300" width="4.033" height="4.033" fill="black"/><rect x="28.233" y="36.300" width="24.200" height="4.033" fill="black"/><rect x="60.499" y="36.300" width="24.200" height="4.033" fill="black"/><rect x="96.799" y="36.300" width="4.033" height="4.033" fill="black"/><rect x="104.865" y="36.300" width="8.067" height="4.033" fill="black"/><rect x="116.965" y="36.300" width="20.166" height="4.033" fill="black"/><rect x="12.100" y="40.333" width="8.067" height="4.033" fill="black"/><rect x="28.233" y="40.333" width="4.033" height="4.033" fill="black"/><rect x="44.366" y="40.333" width="20.166" height="4.033" fill="black"/><rect x="68.566" y="40.333" width="4.033" height="4.033" fill="black"/><rect x="80.666" y="40.333" width="4.033" height="4.033" fill="black"/><rect x="88.732" y="40.333" width="4.033" height="4.033" fill="black"/><rect x="96.799" y="40.333" width="24.200" height="4.033" fill="black"/><rect x="125.032" y="40.333" width="4.033" height="4.033" fill="black"/><rect x="137.132" y="40.333" width="4.033" height="4.033" fill="black"/><rect x="12.100" y="44.366" width="4.033" height="4.033" fill="black"/><rect x="24.200" y="44.366" width="4.033" height="4.033" fill="black"/><rect x="32.266" y="44.366" width="8.067" height="4.033" fill="black"/><rect x="72.599" y="44.366" width="4.033" height="4.033" fill="black"/><rect x="84.699" y="44.366" width="28.233" height="4.033" fill="black"/><rect x="116.965" y="44.366" width="16.133" height="4.033" fill="black"/><rect x="137.132" y="44.366" width="4.033" height="4.033" fill="black"/><rect x="16.133" y="48.399" width="4.033" height="4.033" fill="black"/><rect x="44.366" y="48.399" width="8.067" height="4.033" fill="black"/><rect x="56.466" y="48.399" width="4.033" height="4.033" fill="black"/><rect x="64.533" y="48.399" width="8.067" height="4.033" fill="black"/><rect x="76.632" y="48.399" width="16.133" height="4.033" fill="black"/><rect x="96.799" y="48.399" width="4.033" height="4.033" fill="black"/><rect x="104.865" y="48.399" width="4.033" height="4.033" fill="black"/><rect x="116.965" y="48.399" width="4.033" height="4.033" fill="black"/><rect x="125.032" y="48.399" width="4.033" height="4.033" fill="black"/><rect x="133.098" y="48.399" width="8.067" height="4.033" fill="black"/><rect x="24.200" y="52.433" width="4.033" height="4.033" fill="black"/><rect x="32.266" y="52.433" width="12.100" height="4.033" fill="black"/><rect x="56.466" y="52.433" width="8.067" height="4.033" fill="black"/><rect x="68.566" y="52.433" width="8.067" height="4.033" fill="black"/><rect x="84.699" y="52.433" width="4.033" height="4.033" fill="black"/><rect x="92.765" y="52.433" width="12.100" height="4.033" fill="black"/><rect x="108.899" y="52.433" width="32.266" height="4.033" fill="black"/><rect x="12.100" y="56.466" width="4.033" height="4.033" fill="black"/><rect x="20.166" y="56.466" width="4.033" height="4.033" fill="black"/><rect x="28.233" y="56.466" width="4.033" height="4.033" fill="black"/><rect x="48.399" y="56.466" width="4.033" height="4.033" fill="black"/><rect x="56.466" y="56.466" width="4.033" height="4.033" fill="black"/><rect x="72.599" y="56.466" width="36.300" height="4.033" fill="black"/><rect x="112.932" y="56.466" width="4.033" height="4.033" fill="black"/><rect x="125.032" y="56.466" width="8.067" height="4.033" fill="black"/><rect x="137.132" y="56.466" width="4.033" height="4.033" fill="black"/><rect x="4.033" y="60.499" width="4.033" height="4.033" fill="black"/><rect x="20.166" y="60.499" width="4.033" height="4.033" fill="black"/><rect x="28.233" y="60.499" width="16.133" height="4.033" fill="black"/><rect x="52.433" y="60.499" width="8.067" height="4.033" fill="black"/><rect x="64.533" y="60.499" width="4.033" height="4.033" fill="black"/><rect x="72.599" y="60.499" width="20.166" height="4.033" fill="black"/><rect x="100.832" y="60.499" width="4.033" height="4.033" fill="black"/><rect x="116.965" y="60.499" width="4.033" height="4.033" fill="black"/><rect x="137.132" y="60.499" width="4.033" height="4.033" fill="black"/><rect x="4.033" y="64.533" width="12.100" height="4.033" fill="black"/><rect x="20.166" y="64.533" width="8.067" height="4.033" fill="black"/><rect x="48.399" y="64.533" width="16.133" height="4.033" fill="black"/><rect x="76.632" y="64.533" width="16.133" height="4.033" fill="black"/><rect x="96.799" y="64.533" width="4.033" height="4.033" fill="black"/><rect x="108.899" y="64.533" width="12.100" height="4.033" fill="black"/><rect x="125.032" y="64.533" width="4.033" height="4.033" fill="black"/><rect x="133.098" y="64.533" width="4.033" height="4.033" fill="black"/><rect x="12.100" y="68.566" width="8.067" height="4.033" fill="black"/><rect x="32.266" y="68.566" width="16.133" height="4.033" fill="black"/><rect x="52.433" y="68.566" width="4.033" height="4.033" fill="black"/><rect x="80.666" y="68.566" width="8.067" height="4.033" fill="black"/><rect x="96.799" y="68.566" width="8.067" height="4.033" fill="black"/><rect x="112.932" y="68.566" width="8.067" height="4.033" fill="black"/><rect x="125.032" y="68.566" width="4.033" height="4.033" fill="black"/><rect x="4.033" y="72.599" width="4.033" height="4.033" fill="black"/><rect x="16.133" y="72.599" width="12.100" height="4.033" fill="black"/><rect x="36.300" y="72.599" width="8.067" height="4.033" fill="black"/><rect x="48.399" y="72.599" width="4.033" height="4.033" fill="black"/><rect x="64.533" y="72.599" width="4.033" height="4.033" fill="black"/><rect x="72.599" y="72.599" width="4.033" height="4.033" fill="black"/><rect x="88.732" y="72.599" width="4.033" height="4.033" fill="black"/><rect x="100.832" y="72.599" width="4.033" height="4.033" fill="black"/><rect x="112.932" y="72.599" width="8.067" height="4.033" fill="black"/><rect x="129.065" y="72.599" width="4.033" height="4.033" fill="black"/><rect x="137.132" y="72.599" width="4.033" height="4.033" fill="black"/><rect x="4.033" y="76.632" width="8.067" height="4.033" fill="black"/><rect x="32.266" y="76.632" width="12.100" height="4.033" fill="black"/><rect x="48.399" y="76.632" width="8.067" height="4.033" fill="black"/><rect x="64.533" y="76.632" width="8.067" height="4.033" fill="black"/><rect x="80.666" y="76.632" width="4.033" height="4.033" fill="black"/><rect x="88.732" y="76.632" width="16.133" height="4.033" fill="black"/><rect x="125.032" y="76.632" width="8.067" height="4.033" fill="black"/><rect x="137.132" y="76.632" width="4.033" height="4.033" fill="black"/><rect x="28.233" y="80.666" width="4.033" height="4.033" fill="black"/><rect x="36.300" y="80.666" width="20.166" height="4.033" fill="black"/><rect x="64.533" y="80.666" width="8.067" height="4.033" fill="black"/><rect x="76.632" y="80.666" width="4.033" height="4.033" fill="black"/><rect x="88.732" y="80.666" width="4.033" height="4.033" fill="black"/><rect x="100.832" y="80.666" width="4.033" height="4.033" fill="black"/><rect x="112.932" y="80.666" width="16.133" height="4.033" fill="black"/><rect x="133.098" y="80.666" width="8.067" height="4.033" fill="black"/><rect x="4.033" y="84.699" width="12.100" height="4.033" fill="black"/><rect x="20.166" y="84.699" width="4.033" height="4.033" fill="black"/><rect x="28.233" y="84.699" width="4.033" height="4.033" fill="black"/><rect x="40.333" y="84.699" width="4.033" height="4.033" fill="black"/><rect x="48.399" y="84.699" width="12.100" height="4.033" fill="black"/><rect x="64.533" y="84.699" width="24.200" height="4.033" fill="black"/><rect x="96.799" y="84.699" width="8.067" height="4.033" fill="black"/><rect x="116.965" y="84.699" width="4.033" height="4.033" fill="black"/><rect x="137.132" y="84.699" width="4.033" height="4.033" fill="black"/><rect x="12.100" y="88.732" width="8.067" height="4.033" fill="black"/><rect x="28.233" y="88.732" width="4.033" height="4.033" fill="black"/><rect x="44.366" y="88.732" width="4.033" height="4.033" fill="black"/><rect x="56.466" y="88.732" width="4.033" height="4.033" fill="black"/><rect x="64.533" y="88.732" width="8.067" height="4.033" fill="black"/><rect x="76.632" y="88.732" width="20.166" height="4.033" fill="black"/><rect x="116.965" y="88.732" width="4.033" height="4.033" fill="black"/><rect x="137.132" y="88.732" width="4.033" height="4.033" fill="black"/><rect x="4.033" y="92.765" width="12.100" height="4.033" fill="black"/><rect x="28.233" y="92.765" width="8.067" height="4.033" fill="black"/><rect x="40.333" y="92.765" width="4.033" height="4.033" fill="black"/><rect x="48.399" y="92.765" width="8.067" height="4.033" fill="black"/><rect x="60.499" y="92.765" width="4.033" height="4.033" fill="black"/><rect x="72.599" y="92.765" width="32.266" height="4.033" fill="black"/><rect x="108.899" y="92.765" width="8.067" height="4.033" fill="black"/><rect x="129.065" y="92.765" width="12.100" height="4.033" fill="black"/><rect x="40.333" y="96.799" width="4.033" height="4.033" fill="black"/><rect x="48.399" y="96.799" width="8.067" height="4.033" fill="black"/><rect x="60.499" y="96.799" width="4.033" height="4.033" fill="black"/><rect x="68.566" y="96.799" width="4.033" height="4.033" fill="black"/><rect x="80.666" y="96.799" width="8.067" height="4.033" fill="black"/><rect x="92.765" y="96.799" width="4.033" height="4.033" fill="black"/><rect x="104.865" y="96.799" width="4.033" height="4.033" fill="black"/><rect x="120.998" y="96.799" width="8.067" height="4.033" fill="black"/><rect x="137.132" y="96.799" width="4.033" height="4.033" fill="black"/><rect x="4.033" y="100.832" width="28.233" height="4.033" fill="black"/><rect x="36.300" y="100.832" width="4.033" height="4.033" fill="black"/><rect x="52.433" y="100.832" width="4.033" height="4.033" fill="black"/><rect x="72.599" y="100.832" width="4.033" height="4.033" fill="black"/><rect x="80.666" y="100.832" width="4.033" height="4.033" fill="black"/><rect x="96.799" y="100.832" width="8.067" height="4.033" fill="black"/><rect x="108.899" y="100.832" width="4.033" height="4.033" fill="black"/><rect x="116.965" y="100.832" width="4.033" height="4.033" fill="black"/><rect x="133.098" y="100.832" width="4.033" height="4.033" fill="black"/><rect x="4.033" y="104.865" width="4.033" height="4.033" fill="black"/><rect x="28.233" y="104.865" width="4.033" height="4.033" fill="black"/><rect x="36.300" y="104.865" width="16.133" height="4.033" fill="black"/><rect x="56.466" y="104.865" width="16.133" height="4.033" fill="black"/><rect x="76.632" y="104.865" width="8.067" height="4.033" fill="black"/><rect x="88.732" y="104.865" width="4.033" height="4.033" fill="black"/><rect x="96.799" y="104.865" width="8.067" height="4.033" fill="black"/><rect x="116.965" y="104.865" width="8.067" height="4.033" fill="black"/><rect x="129.065" y="104.865" width="8.067" height="4.033" fill="black"/><rect x="4.033" y="108.899" width="4.033" height="4.033" fill="black"/><rect x="12.100" y="108.899" width="12.100" height="4.033" fill="black"/><rect x="28.233" y="108.899" width="4.033" height="4.033" fill="black"/><rect x="40.333" y="108.899" width="4.033" height="4.033" fill="black"/><rect x="48.399" y="108.899" width="4.033" height="4.033" fill="black"/><rect x="64.533" y="108.899" width="4.033" height="4.033" fill="black"/><rect x="76.632" y="108.899" width="4.033" height="4.033" fill="black"/><rect x="84.699" y="108.899" width="8.067" height="4.033" fill="black"/><rect x="96.799" y="108.899" width="28.233" height="4.033" fill="black"/><rect x="4.033" y="112.932" width="4.033" height="4.033" fill="black"/><rect x="12.100" y="112.932" width="12.100" height="4.033" fill="black"/><rect x="28.233" y="112.932" width="4.033" height="4.033" fill="black"/><rect x="40.333" y="112.932" width="4.033" height="4.033" fill="black"/><rect x="52.433" y="112.932" width="8.067" height="4.033" fill="black"/><rect x="68.566" y="112.932" width="8.067" height="4.033" fill="black"/><rect x="88.732" y="112.932" width="4.033" height="4.033" fill="black"/><rect x="104.865" y="112.932" width="4.033" height="4.033" fill="black"/><rect x="112.932" y="112.932" width="20.166" height="4.033" fill="black"/><rect x="4.033" y="116.965" width="4.033" height="4.033" fill="black"/><rect x="12.100" y="116.965" width="12.100" height="4.033" fill="black"/><rect x="28.233" y="116.965" width="4.033" height="4.033" fill="black"/><rect x="36.300" y="116.965" width="8.067" height="4.033" fill="black"/><rect x="60.499" y="116.965" width="4.033" height="4.033" fill="black"/><rect x="72.599" y="116.965" width="8.067" height="4.033" fill="black"/><rect x="84.699" y="116.965" width="4.033" height="4.033" fill="black"/><rect x="92.765" y="116.965" width="4.033" height="4.033" fill="black"/><rect x="100.832" y="116.965" width="4.033" height="4.033" fill="black"/><rect x="116.965" y="116.965" width="20.166" height="4.033" fill="black"/><rect x="4.033" y="120.998" width="4.033" height="4.033" fill="black"/><rect x="28.233" y="120.998" width="4.033" height="4.033" fill="black"/><rect x="64.533" y="120.998" width="8.067" height="4.033" fill="black"/><rect x="76.632" y="120.998" width="16.133" height="4.033" fill="black"/><rect x="100.832" y="120.998" width="12.100" height="4.033" fill="black"/><rect x="120.998" y="120.998" width="4.033" height="4.033" fill="black"/><rect x="4.033" y="125.032" width="28.233" height="4.033" fill="black"/><rect x="40.333" y="125.032" width="8.067" height="4.033" fill="black"/><rect x="52.433" y="125.032" width="12.100" height="4.033" fill="black"/><rect x="72.599" y="125.032" width="12.100" height="4.033" fill="black"/><rect x="88.732" y="125.032" width="4.033" height="4.033" fill="black"/><rect x="100.832" y="125.032" width="8.067" height="4.033" fill="black"/><rect x="116.965" y="125.032" width="8.067" height="4.033" fill="black"/><rect x="133.098" y="125.032" width="4.033" height="4.033" fill="black"/>
    </g>
        <text x="75" y="175" font-family="Oswald" font-size="22" fill="#39FF14" text-anchor="middle">^ DONATE HERE ^</text>
  </g>

</svg>

